REM DIRINDEX 1\8,1\2\11,1\3\12,1\3\14,1\5\15,1\5\16,1\6\17,1\6\18,1\4\19,1\4\20,1\4\21,1\4\22,1\7\23,1\7\24,1\7\25,1\2\9\26,1\2\9\27,1\2\10\28,1\2\10\29,1\2\10\30,1\2\10\31,1\2\10\32,1\3\13\33,1\3\13\34,1\3\13\35
REM DIRNAME cjc123,folder01,folder02,folder03,folder04,folder05,folder06,folder07,folder08,folder09,folder10,folder11,folder12,folder13,folder14,folder15,folder16,folder17,folder18,folder19,folder20,folder21,folder22,folder23,folder24,folder25,folder26,folder27,folder28,folder29,folder30,folder31,folder32,folder33,folder34
TITLE ""
FILE "91 091_UNIT3_SET3.mp3" MP3
  TRACK 01 AUDIO
    TITLE "14:cjc123_7912"
    INDEX 01 00:00:00
  TRACK 02 AUDIO
    TITLE "0:"
    INDEX 01 00:02:51
  TRACK 03 AUDIO
    TITLE "33:cjc123_7913"
    INDEX 01 00:03:27
  TRACK 04 AUDIO
    TITLE "0:"
    INDEX 01 00:04:54
  TRACK 05 AUDIO
    TITLE "34:cjc123_7914"
    INDEX 01 00:04:70
  TRACK 06 AUDIO
    TITLE "0:"
    INDEX 01 00:06:18
  TRACK 07 AUDIO
    TITLE "35:cjc123_7915"
    INDEX 01 00:06:71
  TRACK 08 AUDIO
    TITLE "0:"
    INDEX 01 00:11:15
  TRACK 09 AUDIO
    TITLE "33:cjc123_7916"
    INDEX 01 00:11:66
  TRACK 10 AUDIO
    TITLE "0:"
    INDEX 01 00:13:02
  TRACK 11 AUDIO
    TITLE "34:cjc123_7917"
    INDEX 01 00:13:18
  TRACK 12 AUDIO
    TITLE "0:"
    INDEX 01 00:14:23
  TRACK 13 AUDIO
    TITLE "35:cjc123_7918"
    INDEX 01 00:14:72
  TRACK 14 AUDIO
    TITLE "0:"
    INDEX 01 00:19:24
  TRACK 15 AUDIO
    TITLE "33:cjc123_7919"
    INDEX 01 00:20:06
  TRACK 16 AUDIO
    TITLE "0:"
    INDEX 01 00:21:13
  TRACK 17 AUDIO
    TITLE "34:cjc123_7920"
    INDEX 01 00:21:33
  TRACK 18 AUDIO
    TITLE "0:"
    INDEX 01 00:22:42
  TRACK 19 AUDIO
    TITLE "35:cjc123_7921"
    INDEX 01 00:23:16
  TRACK 20 AUDIO
    TITLE "0:"
    INDEX 01 00:26:09
  TRACK 21 AUDIO
    TITLE "33:cjc123_7922"
    INDEX 01 00:26:60
  TRACK 22 AUDIO
    TITLE "0:"
    INDEX 01 00:28:21
  TRACK 23 AUDIO
    TITLE "34:cjc123_7923"
    INDEX 01 00:28:51
  TRACK 24 AUDIO
    TITLE "0:"
    INDEX 01 00:29:72
  TRACK 25 AUDIO
    TITLE "35:cjc123_7924"
    INDEX 01 00:30:50
  TRACK 26 AUDIO
    TITLE "0:"
    INDEX 01 00:35:00
  TRACK 27 AUDIO
    TITLE "33:cjc123_7925"
    INDEX 01 00:35:51
  TRACK 28 AUDIO
    TITLE "0:"
    INDEX 01 00:36:68
  TRACK 29 AUDIO
    TITLE "34:cjc123_7926"
    INDEX 01 00:37:12
  TRACK 30 AUDIO
    TITLE "0:"
    INDEX 01 00:38:33
  TRACK 31 AUDIO
    TITLE "35:cjc123_7927"
    INDEX 01 00:39:03
  TRACK 32 AUDIO
    TITLE "0:"
    INDEX 01 00:43:11
  TRACK 33 AUDIO
    TITLE "33:cjc123_7928"
    INDEX 01 00:43:62
  TRACK 34 AUDIO
    TITLE "0:"
    INDEX 01 00:44:61
  TRACK 35 AUDIO
    TITLE "34:cjc123_7929"
    INDEX 01 00:45:26
  TRACK 36 AUDIO
    TITLE "0:"
    INDEX 01 00:46:33
  TRACK 37 AUDIO
    TITLE "35:cjc123_7930"
    INDEX 01 00:47:09
  TRACK 38 AUDIO
    TITLE "0:"
    INDEX 01 00:52:41
  TRACK 39 AUDIO
    TITLE "33:cjc123_7931"
    INDEX 01 00:53:19
  TRACK 40 AUDIO
    TITLE "0:"
    INDEX 01 00:54:38
  TRACK 41 AUDIO
    TITLE "34:cjc123_7932"
    INDEX 01 00:54:70
  TRACK 42 AUDIO
    TITLE "0:"
    INDEX 01 00:56:14
  TRACK 43 AUDIO
    TITLE "35:cjc123_7933"
    INDEX 01 00:56:69
  TRACK 44 AUDIO
    TITLE "0:"
    INDEX 01 01:00:70
  TRACK 45 AUDIO
    TITLE "33:cjc123_7934"
    INDEX 01 01:01:42
  TRACK 46 AUDIO
    TITLE "0:"
    INDEX 01 01:02:55
  TRACK 47 AUDIO
    TITLE "34:cjc123_7935"
    INDEX 01 01:03:12
  TRACK 48 AUDIO
    TITLE "0:"
    INDEX 01 01:04:15
  TRACK 49 AUDIO
    TITLE "35:cjc123_7936"
    INDEX 01 01:05:05
  TRACK 50 AUDIO
    TITLE "0:"
    INDEX 01 01:09:09
  TRACK 51 AUDIO
    TITLE "33:cjc123_7937"
    INDEX 01 01:09:61
  TRACK 52 AUDIO
    TITLE "0:"
    INDEX 01 01:11:02
  TRACK 53 AUDIO
    TITLE "34:cjc123_7938"
    INDEX 01 01:11:19
  TRACK 54 AUDIO
    TITLE "0:"
    INDEX 01 01:12:34
  TRACK 55 AUDIO
    TITLE "35:cjc123_7939"
    INDEX 01 01:13:06
  TRACK 56 AUDIO
    TITLE "0:"
    INDEX 01 01:16:30
  TRACK 57 AUDIO
    TITLE "33:cjc123_7940"
    INDEX 01 01:17:12
  TRACK 58 AUDIO
    TITLE "0:"
    INDEX 01 01:18:47
  TRACK 59 AUDIO
    TITLE "34:cjc123_7941"
    INDEX 01 01:19:13
  TRACK 60 AUDIO
    TITLE "0:"
    INDEX 01 01:20:53
  TRACK 61 AUDIO
    TITLE "35:cjc123_7942"
    INDEX 01 01:21:33
  TRACK 62 AUDIO
    TITLE "0:"
    INDEX 01 01:25:74
  TRACK 63 AUDIO
    TITLE "33:cjc123_7943"
    INDEX 01 01:26:58
  TRACK 64 AUDIO
    TITLE "0:"
    INDEX 01 01:27:71
  TRACK 65 AUDIO
    TITLE "34:cjc123_7944"
    INDEX 01 01:28:25
  TRACK 66 AUDIO
    TITLE "0:"
    INDEX 01 01:29:39
  TRACK 67 AUDIO
    TITLE "35:cjc123_7945"
    INDEX 01 01:30:17
  TRACK 68 AUDIO
    TITLE "0:"
    INDEX 01 01:34:30
  TRACK 69 AUDIO
    TITLE "33:cjc123_7946"
    INDEX 01 01:35:20
  TRACK 70 AUDIO
    TITLE "0:"
    INDEX 01 01:36:29
  TRACK 71 AUDIO
    TITLE "34:cjc123_7947"
    INDEX 01 01:36:48
  TRACK 72 AUDIO
    TITLE "0:"
    INDEX 01 01:37:66
  TRACK 73 AUDIO
    TITLE "35:cjc123_7948"
    INDEX 01 01:38:42
  TRACK 74 AUDIO
    TITLE "0:"
    INDEX 01 01:42:24
  TRACK 75 AUDIO
    TITLE "33:cjc123_7949"
    INDEX 01 01:43:05
  TRACK 76 AUDIO
    TITLE "0:"
    INDEX 01 01:44:26
  TRACK 77 AUDIO
    TITLE "34:cjc123_7950"
    INDEX 01 01:44:52
  TRACK 78 AUDIO
    TITLE "0:"
    INDEX 01 01:45:57
  TRACK 79 AUDIO
    TITLE "35:cjc123_7951"
    INDEX 01 01:46:25
  TRACK 80 AUDIO
    TITLE "0:"
    INDEX 01 01:50:17
  TRACK 81 AUDIO
    TITLE "33:cjc123_7952"
    INDEX 01 01:50:68
  TRACK 82 AUDIO
    TITLE "0:"
    INDEX 01 01:51:66
  TRACK 83 AUDIO
    TITLE "34:cjc123_7953"
    INDEX 01 01:52:36
  TRACK 84 AUDIO
    TITLE "0:"
    INDEX 01 01:53:41
  TRACK 85 AUDIO
    TITLE "35:cjc123_7954"
    INDEX 01 01:54:15
  TRACK 86 AUDIO
    TITLE "0:"
    INDEX 01 01:58:42
  TRACK 87 AUDIO
    TITLE "33:cjc123_7955"
    INDEX 01 01:59:22
  TRACK 88 AUDIO
    TITLE "0:"
    INDEX 01 02:00:37
  TRACK 89 AUDIO
    TITLE "34:cjc123_7956"
    INDEX 01 02:00:63
  TRACK 90 AUDIO
    TITLE "0:"
    INDEX 01 02:01:66
  TRACK 91 AUDIO
    TITLE "35:cjc123_7957"
    INDEX 01 02:02:38
  TRACK 92 AUDIO
    TITLE "0:"
    INDEX 01 02:06:26
